<svg xmlns="http://www.w3.org/2000/svg" fill="none" viewBox="0 0 140 20"><path fill="#fff" d="M23.799 9.795v4.757h-4.757V5.033H4.762V.276h9.518c5.256 0 9.519 4.263 9.519 9.519m-4.761 4.761v4.757H9.519C4.264 19.313 0 15.05 0 9.794V5.037h4.758v9.519z"/><path fill="#fff" fill-rule="evenodd" d="M35.694 6.383c0 3.867.015 6.263.043 6.535.186 1.856.867 3.388 2.07 4.63 1.372 1.423 3.235 2.178 5.36 2.178h.501v-3.58l-.342-.023c-1.529-.112-2.922-1.19-3.423-2.649-.203-.595-.222-.828-.222-3.018V8.418h3.987V5.033h-3.987V.283h-3.987v6.108zm16.85-1.727c-3.597.373-6.406 2.886-7.032 6.294-.093.513-.109 1.86-.023 2.334.21 1.19.634 2.225 1.283 3.139.374.521 1.136 1.3 1.661 1.692a8.2 8.2 0 0 0 3.56 1.513c.532.09 1.61.12 2.158.063 3.038-.323 5.547-2.194 6.605-4.913.545-1.4.623-3.081.215-4.548-.35-1.248-.985-2.318-1.957-3.283-1.21-1.202-2.61-1.914-4.36-2.21-.577-.097-1.576-.135-2.11-.081m17.1.004a7.6 7.6 0 0 0-2.718.786c-2.202 1.132-3.614 3.255-3.902 5.866-.027.253-.043 1.808-.043 4.2v3.801h3.988v-3.808c0-4.12 0-4.193.225-4.874.405-1.237 1.26-2.062 2.412-2.326a4.4 4.4 0 0 1 1.618 0c1.4.323 2.358 1.482 2.595 3.143.023.175.043 1.79.043 4.076v3.79h3.987v-3.801c0-3.898-.012-4.22-.171-5.014-.755-3.762-4.112-6.2-8.033-5.84m17.078-.004c-3.598.373-6.407 2.886-7.033 6.294-.094.513-.11 1.86-.024 2.334.21 1.19.638 2.225 1.284 3.139.373.521 1.136 1.3 1.661 1.692a8.2 8.2 0 0 0 3.56 1.513c.532.09 1.61.12 2.158.063 3.038-.323 5.547-2.194 6.605-4.913.545-1.4.623-3.081.214-4.548-.35-1.248-.984-2.318-1.957-3.283-1.21-1.202-2.61-1.914-4.36-2.21-.576-.097-1.576-.135-2.108-.081m17.014-.016c-1 .086-1.848.316-2.657.716a6.2 6.2 0 0 0-1.75 1.237c-1.194 1.179-1.941 2.813-2.132 4.66-.027.265-.043 1.883-.043 4.244v3.816h3.988v-3.831c0-4.63 0-4.618.486-5.625.198-.413.268-.514.568-.81a2.8 2.8 0 0 1 1.314-.75c.386-.101 1.253-.097 1.642.004 1.136.295 1.89 1.155 2.233 2.54.085.346.089.443.101 4.411l.016 4.057h3.979l.015-3.952c.016-3.804.02-3.968.102-4.345.33-1.517 1.085-2.416 2.283-2.715.447-.113 1.307-.093 1.739.035 1.233.37 1.984 1.377 2.201 2.968.047.35.059 1.163.059 4.22v3.79h3.991l-.016-4.038c-.015-3.58-.023-4.085-.085-4.447-.35-2.015-1.195-3.547-2.583-4.687-1.564-1.28-3.867-1.809-5.948-1.361-1.217.26-2.322.86-3.252 1.754l-.478.463-.479-.46c-1.427-1.372-3.365-2.065-5.294-1.897zm27.004.016c-3.598.373-6.407 2.886-7.033 6.294-.094.513-.105 1.86-.023 2.334.21 1.19.634 2.225 1.283 3.139.374.521 1.136 1.3 1.661 1.692a8.2 8.2 0 0 0 3.559 1.513c.533.09 1.611.12 2.159.063 3.038-.323 5.547-2.194 6.605-4.913.545-1.4.623-3.081.214-4.548-.35-1.248-.984-2.318-1.956-3.283-1.21-1.202-2.614-1.914-4.361-2.21-.576-.097-1.575-.135-2.108-.081M54.257 8.328a4.5 4.5 0 0 1 1.517.75c.61.49 1.147 1.316 1.35 2.078.108.412.151 1.202.081 1.63a3.98 3.98 0 0 1-2.182 2.952c-.63.304-.93.37-1.704.37-.568 0-.712-.016-.992-.093-1.412-.405-2.4-1.4-2.816-2.844-.082-.28-.094-.416-.094-1.007 0-.81.07-1.105.39-1.755.56-1.136 1.59-1.906 2.855-2.147.42-.078 1.12-.05 1.587.062zm34.176 0a4.5 4.5 0 0 1 1.517.75c.611.49 1.148 1.316 1.35 2.078.109.412.152 1.202.082 1.63a3.98 3.98 0 0 1-2.183 2.952c-.63.304-.93.37-1.703.37-.568 0-.712-.016-.992-.093-1.412-.405-2.4-1.4-2.817-2.844-.081-.28-.093-.416-.093-1.007 0-.81.07-1.105.39-1.755.56-1.136 1.59-1.906 2.854-2.147.42-.078 1.12-.05 1.587.062zm44.022 0a4.5 4.5 0 0 1 1.517.75c.611.49 1.148 1.316 1.35 2.078.109.412.148 1.202.082 1.63a3.98 3.98 0 0 1-2.182 2.952c-.631.304-.93.37-1.704.37-.568 0-.712-.016-.992-.093-1.412-.405-2.396-1.4-2.816-2.844-.082-.28-.094-.416-.09-1.007 0-.81.066-1.105.389-1.755.56-1.136 1.591-1.906 2.855-2.147.42-.078 1.121-.05 1.591.062z" clip-rule="evenodd"/></svg>